{
  "accessors": [
    {
      "bufferView": 2,
      "componentType": 5126,
      "count": 2650,
      "max": [
        100.92588806152344,
        96.466331481933594,
        88.923698425292969
      ],
      "min": [
        -109.67283630371094,
        -123.63114929199219,
        -95.968025207519531
      ],
      "type": "VEC3"
    },
    {
      "bufferView": 2,
      "byteOffset": 31800,
      "componentType": 5126,
      "count": 2650,
      "max": [
        0.99964696168899536,
        0.99937528371810913,
        0.9999423623085022
      ],
      "min": [
        -0.9982757568359375,
        -0.99886053800582886,
        -0.99921619892120361
      ],
      "type": "VEC3"
    },
    {
      "bufferView": 3,
      "componentType": 5126,
      "count": 2650,
      "max": [
        0.99963104724884033,
        0.99999207258224487,
        0.99340951442718506,
        1
      ],
      "min": [
        -0.99380117654800415,
        -0.99966216087341309,
        -0.99996912479400635,
        1
      ],
      "type": "VEC4"
    },
    {
      "bufferView": 1,
      "componentType": 5126,
      "count": 2650,
      "max": [
        0.98618400096893311,
        0.98618400096893311
      ],
      "min": [
        0.013815999962389469,
        0.013815999962389469
      ],
      "type": "VEC2"
    },
    {
      "bufferView": 0,
      "componentType": 5125,
      "count": 9216,
      "max": [
        2649
      ],
      "min": [
        0
      ],
      "type": "SCALAR"
    }
  ],
  "asset": {
    "extras": {
      "author": "SculptMike (https://sketchfab.com/SculptMike)",
      "license": "CC-BY-4.0 (http://creativecommons.org/licenses/by/4.0/)",
      "source": "https://sketchfab.com/models/6f5da980f1534fb499aa157ab26a15d9",
      "title": "Magical Mushroom (Blue)"
    },
    "generator": "Sketchfab-3.18.6",
    "version": "2.0"
  },
  "bufferViews": [
    {
      "buffer": 0,
      "byteLength": 36864,
      "byteOffset": 0,
      "name": "floatBufferViews",
      "target": 34963
    },
    {
      "buffer": 0,
      "byteLength": 21200,
      "byteOffset": 36864,
      "byteStride": 8,
      "name": "floatBufferViews",
      "target": 34962
    },
    {
      "buffer": 0,
      "byteLength": 63600,
      "byteOffset": 58064,
      "byteStride": 12,
      "name": "floatBufferViews",
      "target": 34962
    },
    {
      "buffer": 0,
      "byteLength": 42400,
      "byteOffset": 121664,
      "byteStride": 16,
      "name": "floatBufferViews",
      "target": 34962
    }
  ],
  "buffers": [
    {
      "byteLength": 164064,
      "uri": "scene.bin"
    }
  ],
  "images": [
    {
      "uri": "textures/material_0_baseColor.png"
    }
  ],
  "materials": [
    {
      "doubleSided": true,
      "emissiveFactor": [
        0,
        0,
        0
      ],
      "name": "material_0",
      "pbrMetallicRoughness": {
        "baseColorFactor": [
          1,
          1,
          1,
          1
        ],
        "baseColorTexture": {
          "index": 0,
          "texCoord": 0
        },
        "metallicFactor": 1,
        "roughnessFactor": 0.59999999999999998
      }
    }
  ],
  "meshes": [
    {
      "primitives": [
        {
          "attributes": {
            "NORMAL": 1,
            "POSITION": 0,
            "TANGENT": 2,
            "TEXCOORD_0": 3
          },
          "indices": 4,
          "material": 0,
          "mode": 4
        }
      ]
    }
  ],
  "nodes": [
    {
      "children": [
        1
      ],
      "name": "RootNode (gltf orientation matrix)",
      "rotation": [
        -0.70710678118654746,
        -0,
        -0,
        0.70710678118654757
      ]
    },
    {
      "children": [
        2
      ],
      "matrix": [
        -0.8144870400428772,
        -0.57707053422927856,
        0.060003742575645447,
        0,
        0.096044249832630157,
        -0.032113119959831238,
        0.99485892057418823,
        0,
        -0.57217687368392944,
        0.81606268882751465,
        0.081580027937889099,
        0,
        -8.6460161209106445,
        -13.667827606201172,
        10.540045738220215,
        1
      ],
      "name": "RootNode (model correction matrix)"
    },
    {
      "children": [
        3
      ],
      "name": "0b8bbf815416438899410cb2e5ac7af1.obj.cleaner.gles"
    },
    {
      "mesh": 0,
      "name": ""
    }
  ],
  "samplers": [
    {
      "magFilter": 9729,
      "minFilter": 9987,
      "wrapS": 10497,
      "wrapT": 10497
    }
  ],
  "scene": 0,
  "scenes": [
    {
      "name": "OSG_Scene",
      "nodes": [
        0
      ]
    }
  ],
  "textures": [
    {
      "sampler": 0,
      "source": 0
    }
  ]
}

